<svg xmlns="http://www.w3.org/2000/svg" xmlns:xlink="http://www.w3.org/1999/xlink" width="548" height="2544" viewBox="0 0 548 2544">
  <defs>
    <linearGradient id="linear-gradient" x1="0.5" y1="1" x2="0.5" y2="-0.065" gradientUnits="objectBoundingBox">
      <stop offset="0" stop-color="#000b3e"/>
      <stop offset="1" stop-color="#00124b"/>
    </linearGradient>
    <linearGradient id="linear-gradient-2" x1="0.5" y1="1.123" x2="0.5" y2="-0.164" gradientUnits="objectBoundingBox">
      <stop offset="0" stop-color="#002d83"/>
      <stop offset="1" stop-color="#003fa9"/>
    </linearGradient>
    <linearGradient id="linear-gradient-3" x1="0.887" y1="1.174" x2="-0.108" y2="-0.118" gradientUnits="objectBoundingBox">
      <stop offset="0" stop-color="#00287d"/>
      <stop offset="1" stop-color="#0040a9"/>
    </linearGradient>
    <linearGradient id="linear-gradient-4" x1="0.798" y1="1.047" x2="0.257" y2="-0.112" gradientUnits="objectBoundingBox">
      <stop offset="0" stop-color="#001453"/>
      <stop offset="1" stop-color="#00236d"/>
    </linearGradient>
    <linearGradient id="linear-gradient-5" x1="0.707" y1="1.058" x2="0.433" y2="-0.106" gradientUnits="objectBoundingBox">
      <stop offset="0" stop-color="#00195d"/>
      <stop offset="1" stop-color="#001d67"/>
    </linearGradient>
    <linearGradient id="linear-gradient-6" x1="0.327" y1="1.009" x2="1.057" y2="-0.092" gradientUnits="objectBoundingBox">
      <stop offset="0" stop-color="#002879"/>
      <stop offset="1" stop-color="#001a5f"/>
    </linearGradient>
    <linearGradient id="linear-gradient-7" x1="1" y1="0.592" x2="-0.147" y2="0.06" gradientUnits="objectBoundingBox">
      <stop offset="0" stop-color="#0046b2"/>
      <stop offset="1" stop-color="#003493"/>
    </linearGradient>
    <linearGradient id="linear-gradient-8" x1="0.5" y1="1" x2="0.5" gradientUnits="objectBoundingBox">
      <stop offset="0" stop-color="#00124c"/>
      <stop offset="1" stop-color="#00124b"/>
    </linearGradient>
    <linearGradient id="linear-gradient-9" y1="0" y2="1.065" xlink:href="#linear-gradient"/>
    <linearGradient id="linear-gradient-10" y1="-0.123" y2="1.164" xlink:href="#linear-gradient-2"/>
    <linearGradient id="linear-gradient-11" x1="0.887" y1="-0.174" x2="-0.108" y2="1.118" xlink:href="#linear-gradient-3"/>
    <linearGradient id="linear-gradient-12" x1="0.707" y1="-0.058" x2="0.433" y2="1.106" xlink:href="#linear-gradient-5"/>
    <linearGradient id="linear-gradient-13" x1="0.327" y1="-0.009" x2="1.057" y2="1.092" xlink:href="#linear-gradient-6"/>
    <linearGradient id="linear-gradient-14" y1="0" y2="1" xlink:href="#linear-gradient-8"/>
    <linearGradient id="linear-gradient-17" x1="0.302" y1="-0.16" x2="1.06" y2="1.096" gradientUnits="objectBoundingBox">
      <stop offset="0" stop-color="#001f67"/>
      <stop offset="1" stop-color="#003796"/>
    </linearGradient>
    <linearGradient id="linear-gradient-18" x1="0.068" y1="-0.067" x2="0.66" y2="0.961" gradientUnits="objectBoundingBox">
      <stop offset="0" stop-color="#002673"/>
      <stop offset="1" stop-color="#004abe"/>
    </linearGradient>
    <linearGradient id="linear-gradient-19" x1="0.089" y1="-0.145" x2="1.087" y2="1.19" gradientUnits="objectBoundingBox">
      <stop offset="0" stop-color="#001651"/>
      <stop offset="1" stop-color="#00154e"/>
    </linearGradient>
    <clipPath id="clip-rightSide_1">
      <rect width="548" height="2544"/>
    </clipPath>
  </defs>
  <g id="rightSide_1" data-name="rightSide – 1" clip-path="url(#clip-rightSide_1)">
    <g id="Group_108" data-name="Group 108" transform="translate(-1390 -86)">
      <g id="Group_97" data-name="Group 97" transform="translate(1431.257 110.032)">
        <path id="Path_119" data-name="Path 119" d="M1265.914,9218.608v489.808l-148.58-518.663Z" transform="translate(-95.07 -9189.753)" fill="url(#linear-gradient)"/>
        <path id="Path_106" data-name="Path 106" d="M1544.885,9339.747l-40.552-407.556,365.152,120.086Z" transform="translate(-1503.885 -8311.778)" fill="#014f7c"/>
        <path id="Path_107" data-name="Path 107" d="M1833.524,9219.54l6.384-287.009-3.7-1.854L1513,9219.54Z" transform="translate(-1472.996 -8190.646)" fill="#0170b1"/>
        <path id="Path_108" data-name="Path 108" d="M2026.721,9217.043,2074,8940.395,1612.422,8930l-6.755,287.038Z" transform="translate(-1245.407 -8188.149)" fill="#24aeff"/>
        <path id="Path_109" data-name="Path 109" d="M1123.076,9124l89.813,311.766L845,9314.263Z" transform="translate(-845 -8694.037)" fill="#24aeff"/>
        <path id="Path_110" data-name="Path 110" d="M1473.873,9445.833l-546.1-323,89.1,311.794Z" transform="translate(-650.904 -8691.634)" fill="#0170b1"/>
        <path id="Path_111" data-name="Path 111" d="M1234.406,9312.094,1124.5,9039l-48.833,273.092Z" transform="translate(-296.605 -8283.199)" fill="url(#linear-gradient-2)"/>
        <path id="Path_112" data-name="Path 112" d="M1433.373,9311.448v-66.424L1090,9039l109.161,272.447Z" transform="translate(-262.528 -8282.554)" fill="url(#linear-gradient-3)"/>
        <path id="Path_113" data-name="Path 113" d="M1084.931,9108.21,926.75,9332.734l553.9,325.078Z" transform="translate(-650.645 -8901.644)" fill="#014f7c"/>
        <path id="Path_114" data-name="Path 114" d="M1496.314,9300.79l-131.242,356.925L974.5,9119.252Z" transform="translate(-537.122 -8900.943)" fill="url(#linear-gradient-4)"/>
        <path id="Path_115" data-name="Path 115" d="M1431.695,9251.721,1090.25,9477.164,1220.042,9120Z" transform="translate(-260.851 -8721.843)" fill="#010837"/>
        <path id="Path_116" data-name="Path 116" d="M1431.695,9494.878,1090.25,9283.784,1431.695,9057.5Z" transform="translate(-260.851 -8528.465)" fill="url(#linear-gradient-5)"/>
        <path id="Path_117" data-name="Path 117" d="M1304.316,9224.5,1082.25,9569l157.9,55.247Z" transform="translate(-280.954 -9224.034)" fill="url(#linear-gradient-6)"/>
        <path id="Path_118" data-name="Path 118" d="M1439.858,9242,974.25,9273.368l363.679,124Z" transform="translate(-536.633 -9054.086)" fill="url(#linear-gradient-7)"/>
        <path id="Path_120" data-name="Path 120" d="M1341.247,9710.064l-212.5-124.359,65.86-397.454" transform="translate(-170.403 -9185.251)" fill="url(#linear-gradient-8)"/>
      </g>
      <g id="Group_96" data-name="Group 96" transform="translate(1578.815 -5.037)">
        <path id="Path_119-2" data-name="Path 119" d="M1192.421,9437.282V9189.75l-75.087,262.115Z" transform="translate(-600.148 -8927.871)" fill="url(#linear-gradient-9)"/>
        <path id="Path_110-2" data-name="Path 110" d="M1205.664,9119.128l-279,165.564,44.925-157.6Z" transform="translate(-786.706 -8977.419)" fill="#018bdc"/>
        <path id="Path_111-2" data-name="Path 111" d="M1155.888,9039l-55.543,138.01L1075.667,9039Z" transform="translate(-681.387 -9034.975)" fill="url(#linear-gradient-10)"/>
        <path id="Path_112-2" data-name="Path 112" d="M1263.522,9039v33.568L1089.893,9177l55.267-138Z" transform="translate(-671.25 -9034.975)" fill="url(#linear-gradient-11)"/>
        <path id="Path_113-2" data-name="Path 113" d="M1007.825,9391.983,926.75,9284.025,1205.6,9119.6Z" transform="translate(-786.647 -8977.89)" fill="#014f7c"/>
        <path id="Path_114-2" data-name="Path 114" d="M1238.206,9299.627l-66.325-180.377L974.5,9391.37Z" transform="translate(-752.896 -8977.703)" fill="#0190e4"/>
        <path id="Path_115-2" data-name="Path 115" d="M1262.833,9233.952,1090.778,9120.4l65.094,180.124Z" transform="translate(-670.561 -8977.742)" fill="#010837"/>
        <path id="Path_116-2" data-name="Path 116" d="M1262.8,9057.5,1090.25,9164.178,1262.8,9278.535Z" transform="translate(-670.532 -9021.897)" fill="url(#linear-gradient-12)"/>
        <path id="Path_117-2" data-name="Path 117" d="M1194.432,9426.519l-112.95-174.89L1162,9224.5Z" transform="translate(-676.691 -8902.762)" fill="url(#linear-gradient-13)"/>
        <path id="Path_118-2" data-name="Path 118" d="M1209.552,9320.418l-235.3-15.853,183.38-64.308Z" transform="translate(-752.525 -8891.39)" fill="#2cb1ff"/>
        <path id="Path_120-2" data-name="Path 120" d="M1236.138,9188.25,1128.75,9251.1l33.283,200.859" transform="translate(-643.866 -8929.479)" fill="url(#linear-gradient-14)"/>
        <path id="Path_107-2" data-name="Path 107" d="M1674.982,8930l4.031,150.287-2.675-.323L1513,8930Z" transform="translate(-1492.215 -8929.955)" fill="#0190e4"/>
        <path id="Path_106-2" data-name="Path 106" d="M1523.429,8927l-20.762,212.936,186.455-62.253Z" transform="translate(-1502.667 -8927)" fill="#015181"/>
        <path id="Path_109-2" data-name="Path 109" d="M985.528,9281.11l45.514-156.022L844.977,9186.48Z" transform="translate(-844.43 -8974.406)" fill="#018cdf"/>
        <path id="Path_108-2" data-name="Path 108" d="M1818.452,8930l23.855,138.628-232.975,7.714L1605.666,8930Z" transform="translate(-1423.035 -8925.977)" fill="#23adff"/>
      </g>
      <g id="Group_102" data-name="Group 102" transform="translate(2377.31 1507.92) rotate(90)">
        <path id="Path_119-3" data-name="Path 119" d="M1323.364,9692.531l-62-513.781-146,469.98Z" transform="translate(-125.284 -8687.422)" fill="#0190e4"/>
        <path id="Path_110-3" data-name="Path 110" d="M1461.831,9119.128l-535.164,317.58,86.174-302.3Z" transform="translate(-658.199 -8847.306)" fill="#24aeff"/>
        <path id="Path_111-3" data-name="Path 111" d="M1229.545,9039,1123,9303.727,1075.667,9039Z" transform="translate(-319.372 -9031.278)" fill="url(#linear-gradient-10)"/>
        <path id="Path_112-3" data-name="Path 112" d="M1422.944,9039v64.391L1089.893,9303.7,1195.906,9039Z" transform="translate(-286.865 -9031.278)" fill="url(#linear-gradient-11)"/>
        <path id="Path_113-3" data-name="Path 113" d="M1082.265,9642.079,926.75,9435l534.891-315.4Z" transform="translate(-658.009 -8847.776)" fill="#0170b1"/>
        <path id="Path_114-3" data-name="Path 114" d="M1480.334,9465.243l-127.223-345.992L974.5,9641.224Z" transform="translate(-549.425 -8847.74)" fill="#014f7c"/>
        <path id="Path_115-3" data-name="Path 115" d="M1420.809,9338.217,1090.778,9120.4l124.86,345.508Z" transform="translate(-284.73 -8846.763)" fill="#0170b1"/>
        <path id="Path_116-3" data-name="Path 116" d="M1421.238,9057.5,1090.25,9262.125l330.988,219.357Z" transform="translate(-285.159 -8989.208)" fill="#0190e4"/>
        <path id="Path_117-3" data-name="Path 117" d="M1295.1,9569.327l-213.623-292.79,154.452-52.037Z" transform="translate(-305.025 -8607.352)" fill="#24aeff"/>
        <path id="Path_118-3" data-name="Path 118" d="M1437.69,9394.379l-463.44-30.768L1326,9240.258Z" transform="translate(-548.943 -8571.069)" fill="#0190e4"/>
        <path id="Path_120-3" data-name="Path 120" d="M1334.739,9183.25,1128.75,9308.8l59.656,344.724" transform="translate(-198.66 -8691.882)" fill="#014f7c"/>
        <path id="Path_107-3" data-name="Path 107" d="M1823.708,8930l7.732,288.275-5.132-.619L1513,8930Z" transform="translate(-1473.13 -8929.917)" fill="url(#linear-gradient-17)"/>
        <path id="Path_106-3" data-name="Path 106" d="M1542.493,8927l-39.826,408.447,357.652-119.412Z" transform="translate(-1502.667 -8926.999)" fill="url(#linear-gradient-18)"/>
        <path id="Path_109-3" data-name="Path 109" d="M1114.578,9424.365l87.3-299.277-356.9,117.762Z" transform="translate(-843.928 -8836.055)" fill="#0190e4"/>
        <path id="Path_108-3" data-name="Path 108" d="M2013.826,8930l45.759,265.912L1612.7,9210.71,1605.666,8930Z" transform="translate(-1255.348 -8922.281)" fill="url(#linear-gradient-19)"/>
      </g>
      <path id="Path_124" data-name="Path 124" d="M1512.121,12642.926l505,376.2,55.606-376.2H1512.121Z" transform="translate(-37.743 -11505)" fill="#24aeff"/>
      <path id="Path_125" data-name="Path 125" d="M1832,12642.926l180,370.407,62.667-370.407Z" transform="translate(-38.743 -11504)" fill="#0170b1"/>
      <path id="Path_127" data-name="Path 127" d="M2072.727,12642.926,1925.667,12838,1830,12640.926Z" transform="translate(-38.743 -11504)" fill="#0190e4"/>
      <path id="Path_128" data-name="Path 128" d="M1832,13279.5l-320-637.167L2011,13012Z" transform="translate(-38.743 -11504)" fill="#014f7c"/>
      <path id="Path_129" data-name="Path 129" d="M1625.333,13436.917l-166.667-434.25L1832,13281.333Z" transform="translate(-38.743 -11504)" fill="#24aeff"/>
      <path id="Path_130" data-name="Path 130" d="M1458.667,13002.667l56-361.334L1833.333,13284Z" transform="translate(-38.743 -11504)" fill="#0190e4"/>
      <path id="Path_131" data-name="Path 131" d="M1617.558,11708l131.109,340.667L1760,11804Z" transform="translate(-38.743 -11504)" fill="#24aeff"/>
      <path id="Path_132" data-name="Path 132" d="M1746.667,12046.667l92-133.334-78.667-108Z" transform="translate(-38.743 -11504)" fill="#0190e5"/>
      <path id="Path_133" data-name="Path 133" d="M1469,12235l365.667,118.333-225-215.666Z" transform="translate(-38.743 -11504)" fill="#0190e4"/>
      <path id="Path_134" data-name="Path 134" d="M1832,12879v403l181-270Z" transform="translate(-38.743 -11504)" fill="#0170b1"/>
    </g>
  </g>
</svg>
